<svg xmlns="http://www.w3.org/2000/svg" xmlns:xlink="http://www.w3.org/1999/xlink" width="500" zoomAndPan="magnify" viewBox="0 0 375 374.999991" height="500" preserveAspectRatio="xMidYMid meet" version="1.0"><defs><g/></defs><path fill="#000000" d="M 145.765625 5.183594 C 145.71875 4.707031 145.636719 4.203125 145.503906 3.644531 C 144.761719 4.472656 145.019531 4.910156 145.765625 5.183594 Z M 145.765625 5.183594 " fill-opacity="1" fill-rule="nonzero"/><path fill="#000000" d="M 210.503906 3.464844 C 212.085938 3.476562 213.667969 3.492188 213.667969 3.492188 C 213.964844 3.554688 214.15625 3.582031 214.277344 3.589844 C 214.320312 3.585938 214.367188 3.578125 214.414062 3.574219 C 214.421875 3.367188 208.34375 1.601562 208.167969 3.457031 C 208.222656 3.457031 208.273438 3.457031 208.335938 3.453125 C 208.925781 3.457031 209.714844 3.460938 210.503906 3.464844 Z M 210.503906 3.464844 " fill-opacity="1" fill-rule="nonzero"/><path fill="#000000" d="M 180.140625 4.726562 C 179.417969 4.425781 178.621094 4.191406 177.785156 4.042969 C 178.449219 4.265625 179.253906 4.496094 180.140625 4.726562 Z M 180.140625 4.726562 " fill-opacity="1" fill-rule="nonzero"/><path fill="#000000" d="M 197.671875 6.683594 C 196.441406 6.335938 195.179688 6.066406 193.871094 5.871094 C 192.753906 5.714844 191.613281 5.621094 190.449219 5.609375 C 189.285156 5.648438 188.101562 5.765625 186.898438 5.972656 C 186.898438 5.972656 186.917969 6.007812 186.949219 6.058594 C 188.613281 6.296875 190.34375 6.488281 192.101562 6.59375 C 193.960938 6.765625 195.835938 6.769531 197.671875 6.683594 Z M 197.671875 6.683594 " fill-opacity="1" fill-rule="nonzero"/><path fill="#000000" d="M 172.28125 5.078125 C 173.691406 4.765625 174.628906 4.554688 174.628906 4.554688 C 174.628906 4.554688 173.800781 3.410156 172.96875 2.269531 C 172.121094 1.132812 171.273438 -0.00390625 171.273438 -0.00390625 C 164.253906 0.105469 165.117188 2.019531 165.851562 3.996094 C 166.210938 4.980469 166.527344 5.984375 165.859375 6.792969 C 166.289062 6.679688 166.726562 6.5625 167.164062 6.445312 C 169.023438 5.949219 170.886719 5.449219 172.28125 5.078125 Z M 172.28125 5.078125 " fill-opacity="1" fill-rule="nonzero"/><path fill="#000000" d="M 165.84375 6.8125 C 165.847656 6.808594 165.851562 6.800781 165.859375 6.792969 C 164.457031 7.171875 163.128906 7.558594 162.085938 7.917969 C 160.710938 8.359375 159.796875 8.652344 159.796875 8.652344 C 161.636719 8.464844 162.96875 8.199219 163.933594 7.871094 C 164.898438 7.566406 165.5 7.226562 165.84375 6.8125 Z M 165.84375 6.8125 " fill-opacity="1" fill-rule="nonzero"/><path fill="#000000" d="M 283.757812 357.601562 C 283.34375 358.183594 282.738281 358.84375 282.054688 359.523438 C 282.773438 359.304688 283.472656 359.035156 284.132812 358.640625 Z M 283.757812 357.601562 " fill-opacity="1" fill-rule="nonzero"/><path fill="#000000" d="M 282.792969 354.992188 L 283.757812 357.601562 C 284.597656 356.324219 284.636719 355.347656 282.792969 354.992188 Z M 282.792969 354.992188 " fill-opacity="1" fill-rule="nonzero"/><path fill="#000000" d="M 258.96875 366.882812 C 257.058594 368.84375 255.035156 370.628906 255.035156 370.628906 C 256.785156 370.285156 259.710938 369.410156 261.695312 368.109375 C 263.6875 366.820312 264.707031 365.132812 262.746094 363.050781 C 262.75 363.050781 260.859375 364.96875 258.96875 366.882812 Z M 258.96875 366.882812 " fill-opacity="1" fill-rule="nonzero"/><path fill="#000000" d="M 317.628906 301.210938 L 315.902344 300.027344 C 316.011719 300.777344 316.421875 301.300781 317.628906 301.210938 Z M 317.628906 301.210938 " fill-opacity="1" fill-rule="nonzero"/><path fill="#000000" d="M 24.242188 116.851562 C 24.097656 116.460938 23.882812 116.058594 23.554688 115.644531 C 23.554688 115.644531 23.820312 116.117188 24.242188 116.851562 Z M 24.242188 116.851562 " fill-opacity="1" fill-rule="nonzero"/><path fill="#000000" d="M 189.125 371.574219 L 188.914062 371.277344 C 188.898438 371.402344 188.972656 371.496094 189.125 371.574219 Z M 189.125 371.574219 " fill-opacity="1" fill-rule="nonzero"/><path fill="#000000" d="M 288.355469 39.535156 C 288.84375 39.042969 289.179688 38.710938 289.179688 38.710938 C 288.769531 38.917969 288.519531 39.207031 288.355469 39.535156 Z M 288.355469 39.535156 " fill-opacity="1" fill-rule="nonzero"/><path fill="#000000" d="M 365 234.566406 C 364.882812 234.574219 364.785156 234.574219 364.675781 234.585938 C 364.667969 234.75 364.664062 234.910156 364.65625 235.078125 C 364.769531 234.90625 364.875 234.742188 365 234.566406 Z M 365 234.566406 " fill-opacity="1" fill-rule="nonzero"/><path fill="#000000" d="M 362.710938 250.464844 C 363.480469 245.816406 364.304688 240.1875 364.644531 235.339844 C 364.648438 235.25 364.652344 235.167969 364.65625 235.078125 C 363.011719 237.542969 362.28125 239.597656 362.21875 241.878906 C 362.15625 244.316406 362.550781 246.960938 362.710938 250.464844 Z M 362.710938 250.464844 " fill-opacity="1" fill-rule="nonzero"/><path fill="#000000" d="M 348.757812 288.425781 C 349.125 288.726562 349.539062 289.027344 350.03125 289.328125 C 349.964844 288.21875 349.476562 288.089844 348.757812 288.425781 Z M 348.757812 288.425781 " fill-opacity="1" fill-rule="nonzero"/><path fill="#000000" d="M 338.257812 286.742188 C 338.257812 286.742188 339.546875 284.929688 340.769531 283.0625 C 341.949219 281.171875 343.128906 279.277344 343.128906 279.277344 C 344.675781 281.4375 343.722656 284.035156 342.566406 286.332031 C 341.4375 288.648438 340.339844 290.78125 341.898438 292.421875 C 343.789062 292.996094 346.984375 289.257812 348.757812 288.425781 C 345.65625 285.902344 346.566406 283.371094 347.167969 281.316406 C 347.832031 279.023438 348.027344 277.40625 341.710938 277.148438 C 341.429688 277.691406 341.152344 278.25 340.882812 278.847656 C 339.957031 280.945312 339.132812 283.453125 338.257812 286.742188 Z M 338.257812 286.742188 " fill-opacity="1" fill-rule="nonzero"/><path fill="#000000" d="M 348.164062 259.5625 C 347.84375 262.9375 347.238281 265.542969 346.503906 267.722656 C 345.925781 269.21875 345.289062 270.511719 344.640625 271.742188 C 345.34375 271.351562 346.082031 271.242188 346.847656 271.132812 C 348.8125 270.84375 351.0625 270.519531 352.636719 264.527344 C 352.636719 264.527344 351.523438 263.273438 350.410156 262.019531 C 349.285156 260.789062 348.164062 259.5625 348.164062 259.5625 Z M 348.164062 259.5625 " fill-opacity="1" fill-rule="nonzero"/><path fill="#000000" d="M 341.539062 277.140625 C 341.601562 277.140625 341.648438 277.144531 341.710938 277.148438 C 342.410156 275.796875 343.125 274.585938 343.777344 273.34375 C 344.066406 272.8125 344.355469 272.28125 344.640625 271.738281 C 344.421875 271.859375 344.210938 272.003906 344 272.1875 C 343.089844 272.960938 342.386719 274.425781 341.539062 277.140625 Z M 341.539062 277.140625 " fill-opacity="1" fill-rule="nonzero"/><path fill="#000000" d="M 316.859375 319.742188 C 317.65625 318.890625 318.40625 317.972656 319.113281 316.972656 C 319.113281 316.972656 319.074219 316.960938 319.019531 316.945312 C 317.675781 317.957031 316.316406 319.046875 315 320.214844 C 313.558594 321.410156 312.226562 322.730469 310.992188 324.09375 C 312.109375 323.46875 313.191406 322.765625 314.253906 321.976562 C 315.152344 321.296875 316.027344 320.554688 316.859375 319.742188 Z M 316.859375 319.742188 " fill-opacity="1" fill-rule="nonzero"/><path fill="#000000" d="M 324.773438 313.070312 C 325.496094 312.773438 326.226562 312.375 326.921875 311.886719 C 326.292969 312.199219 325.5625 312.605469 324.773438 313.070312 Z M 324.773438 313.070312 " fill-opacity="1" fill-rule="nonzero"/><path fill="#000000" d="M 321.3125 313.59375 C 319.796875 313.277344 319.109375 312.09375 319.941406 309.613281 C 319.941406 309.613281 321.652344 309.570312 323.359375 309.527344 C 325.089844 309.453125 326.816406 309.382812 326.816406 309.382812 C 326.816406 309.382812 326.800781 308.53125 326.773438 307.257812 C 326.761719 306 326.667969 304.292969 326.539062 302.59375 C 326.300781 299.203125 325.988281 295.933594 325.988281 295.933594 C 326.054688 298.332031 325.207031 300.316406 324.039062 302.003906 C 322.894531 303.710938 321.253906 305.003906 319.964844 306.261719 C 317.375 308.78125 315.605469 310.789062 319.097656 314.5 C 319.097656 314.5 317.75 314.785156 316.402344 315.070312 C 315.066406 315.335938 313.734375 315.601562 313.734375 315.601562 C 313.734375 315.601562 315.074219 315.949219 316.414062 316.296875 C 317.5625 316.582031 318.699219 316.867188 319.019531 316.945312 C 321.082031 315.398438 323.078125 314.070312 324.777344 313.070312 C 323.511719 313.59375 322.277344 313.800781 321.3125 313.59375 Z M 321.3125 313.59375 " fill-opacity="1" fill-rule="nonzero"/><path fill="#000000" d="M 304.191406 335.449219 C 303.066406 336.558594 301.941406 337.667969 301.941406 337.667969 C 301.6875 337.835938 301.53125 337.949219 301.4375 338.027344 C 301.410156 338.058594 301.382812 338.101562 301.351562 338.132812 C 301.496094 338.285156 307.039062 335.234375 305.851562 333.796875 C 305.8125 333.839844 305.777344 333.875 305.734375 333.921875 C 305.316406 334.335938 304.753906 334.890625 304.191406 335.449219 Z M 304.191406 335.449219 " fill-opacity="1" fill-rule="nonzero"/><path fill="#000000" d="M 336.382812 295.898438 C 335.214844 297.335938 334.460938 298.46875 334.011719 299.378906 C 333.539062 300.28125 333.359375 300.945312 333.40625 301.480469 C 333.40625 301.488281 333.414062 301.492188 333.414062 301.5 C 334.132812 300.242188 334.804688 299.03125 335.285156 298.039062 C 335.941406 296.757812 336.382812 295.898438 336.382812 295.898438 Z M 336.382812 295.898438 " fill-opacity="1" fill-rule="nonzero"/><path fill="#000000" d="M 335.390625 303.476562 C 334.441406 303.039062 333.511719 302.550781 333.414062 301.5 C 333.191406 301.890625 332.964844 302.28125 332.734375 302.671875 C 331.769531 304.34375 330.808594 306.007812 330.082031 307.261719 C 329.304688 308.480469 328.789062 309.292969 328.789062 309.292969 C 328.789062 309.292969 330.1875 309.515625 331.585938 309.734375 C 332.984375 309.9375 334.382812 310.144531 334.382812 310.144531 C 339.269531 305.101562 337.308594 304.355469 335.390625 303.476562 Z M 335.390625 303.476562 " fill-opacity="1" fill-rule="nonzero"/><path fill="#000000" d="M 2.152344 136.867188 C 2.03125 136.164062 1.992188 135.269531 1.996094 134.304688 C 1.644531 134.96875 1.339844 135.65625 1.152344 136.402344 Z M 2.152344 136.867188 " fill-opacity="1" fill-rule="nonzero"/><path fill="#000000" d="M 4.679688 138.03125 L 2.152344 136.867188 C 2.460938 138.367188 3.125 139.089844 4.679688 138.03125 Z M 4.679688 138.03125 " fill-opacity="1" fill-rule="nonzero"/><path fill="#000000" d="M 10.117188 126.609375 C 12.539062 124.753906 13.492188 123.125 9.78125 120.214844 C 9.78125 120.214844 8.648438 122.199219 7.519531 124.1875 C 6.957031 125.1875 6.394531 126.183594 5.972656 126.933594 C 5.550781 127.679688 5.28125 128.1875 5.28125 128.1875 C 1.816406 126.402344 0.09375 125.496094 3.082031 120.496094 C 1.054688 121.046875 0.746094 126.695312 0.332031 129.6875 L 1.566406 127.898438 C 2.097656 129.527344 1.972656 132.101562 1.996094 134.304688 C 3.898438 130.652344 7.648438 128.433594 10.117188 126.609375 Z M 10.117188 126.609375 " fill-opacity="1" fill-rule="nonzero"/><path fill="#000000" d="M 13.160156 118.152344 C 13.160156 118.152344 13.140625 115.457031 13.125 112.765625 C 13.089844 110.03125 13.257812 107.332031 13.257812 107.332031 C 12.261719 108.8125 10.8125 111.503906 10.328125 113.828125 C 9.832031 116.152344 10.300781 118.0625 13.160156 118.152344 Z M 13.160156 118.152344 " fill-opacity="1" fill-rule="nonzero"/><path fill="#000000" d="M 23.488281 110.289062 C 24.476562 108.777344 25.519531 107.429688 25.488281 105.667969 C 23.003906 107.242188 23.066406 106.253906 23.785156 104.535156 C 24.523438 102.832031 25.898438 100.410156 25.894531 99.085938 C 17.253906 105.808594 25.625 104.59375 23.488281 110.289062 Z M 23.488281 110.289062 " fill-opacity="1" fill-rule="nonzero"/><path fill="#000000" d="M 23.488281 110.289062 C 23.035156 110.992188 22.605469 111.746094 22.359375 112.597656 C 22.921875 111.703125 23.238281 110.972656 23.488281 110.289062 Z M 23.488281 110.289062 " fill-opacity="1" fill-rule="nonzero"/><path fill="#000000" d="M 59.195312 60.03125 L 59.554688 60.089844 C 59.480469 59.988281 59.355469 59.976562 59.195312 60.03125 Z M 59.195312 60.03125 " fill-opacity="1" fill-rule="nonzero"/><path fill="#000000" d="M 373.664062 179.011719 C 372.867188 176.855469 371.960938 174.3125 371.351562 171.863281 C 370.746094 169.410156 370.628906 167.007812 371.699219 165.011719 L 367.894531 165.730469 C 367.871094 165.464844 367.847656 165.203125 367.824219 164.9375 C 367.496094 160.390625 367.285156 157.511719 367.3125 155.566406 C 367.277344 153.515625 367.398438 152.511719 367.585938 151.59375 C 367.761719 150.683594 367.972656 149.871094 368.007812 148.214844 C 368.023438 147.386719 367.996094 146.347656 367.898438 144.972656 C 367.746094 143.617188 367.511719 141.929688 367.148438 139.789062 C 367.148438 139.789062 365.710938 138.957031 364.273438 138.121094 C 363.867188 137.894531 363.476562 137.671875 363.105469 137.460938 C 362.859375 136.53125 362.613281 135.597656 362.351562 134.671875 C 362.375 134.648438 362.394531 134.625 362.421875 134.601562 C 362.261719 134.140625 362.085938 133.671875 361.917969 133.210938 C 359.382812 124.566406 356.144531 116.222656 352.261719 108.253906 C 351.648438 106.234375 350.730469 104.183594 349.273438 102.257812 C 349.273438 102.257812 349.304688 102.382812 349.347656 102.566406 C 347.402344 98.945312 345.324219 95.402344 343.113281 91.957031 C 343.347656 91.761719 343.570312 91.523438 343.769531 91.195312 C 342.328125 89.0625 340.636719 87.203125 338.792969 85.566406 C 325.488281 66.859375 308.265625 51.136719 288.328125 39.585938 C 288.335938 39.566406 288.351562 39.550781 288.355469 39.535156 C 288.34375 39.550781 288.328125 39.5625 288.316406 39.578125 C 286.726562 38.65625 285.113281 37.765625 283.492188 36.898438 C 284.085938 36.234375 284.746094 35.554688 285.410156 34.867188 C 288.828125 31.34375 292.355469 27.5625 285.441406 24.625 C 288.089844 27.863281 286.839844 30.710938 284.503906 32.382812 C 282.140625 34.070312 278.792969 34.496094 276.621094 32.929688 C 276.65625 33.070312 276.660156 33.253906 276.652344 33.457031 C 275.699219 33.003906 274.746094 32.558594 273.785156 32.125 C 276.074219 31.351562 276.488281 29.898438 275.660156 28.410156 C 274.777344 26.8125 272.496094 25.167969 269.8125 24.636719 C 270.90625 25.152344 271.808594 25.761719 272.492188 26.441406 C 273.167969 27.144531 273.640625 27.890625 273.914062 28.613281 C 274.40625 29.917969 274.226562 31.140625 273.496094 32 C 272.050781 31.355469 270.59375 30.734375 269.125 30.128906 C 268.8125 29.898438 268.5 29.675781 268.1875 29.445312 C 268.652344 29.257812 269.164062 28.914062 269.757812 28.351562 C 271.363281 25.664062 268.632812 22.675781 264.730469 19.8125 C 262.769531 18.429688 260.546875 17.015625 258.480469 15.640625 C 256.390625 14.34375 254.472656 13.035156 253.175781 11.691406 C 250.382812 11.316406 248.851562 11.804688 247.765625 12.578125 C 246.667969 13.390625 245.972656 14.628906 244.785156 16.167969 C 244.5 14.339844 243.066406 12.78125 241.566406 11.367188 C 240.066406 9.945312 238.523438 8.515625 238.113281 6.679688 C 235.019531 7.320312 232.445312 7.34375 230.082031 6.957031 C 227.726562 6.558594 225.59375 5.726562 223.417969 5.082031 C 221.25 4.40625 219.0625 3.699219 216.675781 3.519531 C 215.945312 3.484375 215.1875 3.511719 214.414062 3.578125 C 214.414062 3.59375 214.371094 3.601562 214.277344 3.59375 C 212.570312 3.75 210.765625 4.152344 208.820312 5 C 208.316406 4.320312 208.132812 3.824219 208.167969 3.460938 C 207.675781 3.476562 207.347656 3.488281 207.347656 3.488281 L 208.015625 4.242188 C 205.878906 5.5 203.332031 6.1875 200.605469 6.46875 C 199.648438 6.570312 198.667969 6.636719 197.675781 6.683594 C 198.542969 6.929688 199.398438 7.207031 200.230469 7.550781 C 200.804688 7.796875 201.351562 8.078125 201.910156 8.34375 C 200.347656 8.484375 198.382812 8.742188 196.414062 8.96875 C 193.617188 9.265625 190.855469 9.695312 189.273438 9.957031 C 189.015625 9.515625 188.675781 8.9375 188.335938 8.359375 C 187.726562 7.347656 187.121094 6.339844 186.949219 6.058594 C 184.398438 5.691406 182.046875 5.21875 180.140625 4.726562 C 181.398438 5.25 182.417969 5.976562 182.957031 6.804688 C 183.347656 7.40625 183.46875 8.011719 183.269531 8.605469 C 182.839844 8.628906 182.414062 8.660156 181.984375 8.679688 C 181.074219 8.75 180.167969 8.773438 179.257812 8.820312 C 179.054688 8.628906 178.847656 8.429688 178.636719 8.230469 C 177.363281 7.058594 176.089844 5.886719 176.089844 5.886719 C 176.089844 5.886719 175.503906 6.5 174.621094 7.421875 C 174.164062 7.890625 173.632812 8.457031 173.078125 9.078125 C 169.964844 9.191406 166.882812 9.394531 163.878906 9.507812 C 159.980469 9.789062 156.21875 10.183594 152.738281 10.789062 C 149.84375 11.386719 147.15625 12.101562 144.746094 13.058594 C 145.792969 12.121094 147.234375 11.515625 148.667969 11.042969 C 151.101562 10.203125 153.382812 9.472656 153.441406 7.210938 C 152.511719 5.46875 147.605469 5.847656 145.769531 5.179688 C 146.175781 9.164062 143.746094 10.304688 141.867188 11.332031 C 139.972656 12.378906 138.75 13.308594 141.734375 16.941406 C 141.53125 17.5625 141.554688 18.074219 142.007812 18.378906 C 140.847656 18.726562 139.726562 19.027344 138.628906 19.371094 C 138.054688 19.539062 137.472656 19.714844 136.890625 19.894531 C 137.128906 19.964844 137.378906 20.015625 137.65625 20.03125 C 138.757812 20.121094 140.167969 19.660156 142.363281 18.542969 C 143.109375 18.78125 144.480469 18.71875 146.867188 18.171875 C 144.050781 20.957031 140.386719 21.910156 136.386719 21.964844 C 134.867188 22.0625 133.296875 22.019531 131.730469 21.953125 C 132.066406 21.769531 132.410156 21.578125 132.734375 21.417969 C 134.199219 20.769531 135.5625 20.308594 136.890625 19.898438 C 136.117188 19.675781 135.515625 19.226562 134.902344 18.765625 C 133.304688 17.582031 131.488281 16.21875 126.136719 19.339844 C 126.136719 19.339844 126.074219 20.433594 125.996094 21.730469 C 125.492188 21.722656 124.972656 21.699219 124.484375 21.714844 C 124.484375 21.714844 124.742188 21.277344 125.128906 20.628906 C 125.515625 19.96875 126.042969 19.117188 126.585938 18.28125 C 127.683594 16.589844 128.785156 14.902344 128.785156 14.902344 C 119.085938 18.230469 107.949219 20.484375 97.402344 24.292969 C 86.886719 28.039062 76.988281 33.214844 70.695312 40.636719 L 75.738281 42.113281 C 74.898438 42.820312 74.050781 43.503906 73.191406 44.164062 C 72.347656 44.84375 71.511719 45.527344 70.65625 46.175781 C 68.957031 47.476562 67.226562 48.703125 65.492188 49.867188 C 62.117188 52.3125 58.691406 54.496094 55.578125 56.703125 C 52.523438 58.96875 49.566406 61.019531 47.265625 63.253906 C 44.949219 65.46875 43.089844 67.652344 41.988281 69.886719 C 48.753906 67.832031 47.839844 70.132812 45.230469 73.3125 C 44.609375 74.140625 43.878906 75.023438 43.125 75.917969 C 42.871094 76.035156 42.609375 76.132812 42.339844 76.214844 L 42.679688 76.445312 C 40.515625 78.992188 38.296875 81.546875 38.027344 82.988281 C 39.257812 82.003906 40.503906 80.910156 41.742188 79.746094 C 42.523438 78.996094 43.285156 78.195312 44.039062 77.375 L 45.546875 78.40625 C 42.25 82.214844 40.242188 84.5625 38.765625 86 C 37.34375 87.472656 36.546875 88.097656 35.765625 88.613281 C 34.996094 89.132812 34.277344 89.558594 33.082031 90.703125 C 32.484375 91.277344 31.765625 92.03125 30.867188 93.074219 C 30.015625 94.140625 28.988281 95.5 27.730469 97.269531 C 27.730469 97.269531 28.160156 98.878906 28.585938 100.484375 C 28.808594 101.277344 29.027344 102.070312 29.191406 102.667969 C 29.375 103.261719 29.496094 103.660156 29.496094 103.660156 C 29.847656 104.214844 30.253906 100.339844 31.273438 96.585938 C 32.226562 92.804688 34.105469 89.359375 36.582031 90.796875 C 36.394531 92.195312 36.117188 93.605469 35.773438 95.03125 C 35.460938 96.46875 35.128906 97.941406 34.734375 99.417969 C 34.34375 100.894531 33.917969 102.386719 33.476562 103.886719 C 33.046875 105.394531 32.6875 106.945312 32.292969 108.480469 C 31.90625 110.019531 31.535156 111.566406 31.195312 113.113281 C 30.882812 114.664062 30.667969 116.238281 30.480469 117.789062 C 30.296875 119.34375 30.175781 120.886719 30.140625 122.410156 C 30.117188 123.933594 30.253906 125.464844 30.460938 126.945312 C 30.460938 126.945312 28.621094 124.210938 26.890625 121.378906 C 25.871094 119.6875 24.875 117.960938 24.242188 116.851562 C 25.042969 119.050781 23.203125 120.992188 20.914062 123.613281 C 19.539062 125.148438 17.953125 126.902344 16.582031 129 C 15.300781 131.117188 14.242188 133.585938 13.851562 136.460938 C 13.851562 136.460938 15.195312 134.230469 16.539062 132 C 17.222656 130.898438 17.867188 129.796875 18.40625 128.988281 C 18.949219 128.179688 19.3125 127.644531 19.3125 127.644531 C 20.835938 130.183594 21.382812 133.105469 21.183594 136.257812 C 20.945312 139.402344 20.292969 142.855469 19.484375 146.449219 C 19.277344 147.347656 19.070312 148.253906 18.863281 149.164062 C 18.691406 150.082031 18.523438 151.007812 18.355469 151.929688 C 18.035156 153.785156 17.75 155.648438 17.5625 157.492188 C 17.234375 161.175781 17.503906 164.796875 18.5625 168.011719 C 18.859375 164.582031 19.179688 161.15625 21.9375 160.847656 C 22.179688 161.152344 22.363281 161.511719 22.515625 161.902344 C 22.507812 163.1875 22.589844 163.429688 22.882812 163.269531 C 23.097656 164.640625 23.003906 166.273438 22.707031 167.988281 C 22.257812 170.886719 21.410156 174.019531 20.527344 176.355469 C 20.167969 176.285156 19.832031 176.171875 19.511719 176.039062 C 19.144531 173.738281 19.304688 171.476562 20.886719 168.355469 C 20.886719 168.355469 19.507812 168.582031 18.128906 168.804688 C 16.753906 169.050781 15.375 169.292969 15.375 169.292969 C 15.40625 169.820312 15.460938 170.339844 15.511719 170.863281 C 15.511719 170.855469 15.507812 170.851562 15.507812 170.84375 C 14.449219 167.933594 14.296875 164.257812 14.046875 160.722656 C 13.730469 153.667969 14.042969 147.175781 9.925781 148.175781 C 9.207031 151.910156 9.238281 155.621094 9.84375 159.15625 C 10.515625 162.703125 11.535156 166.070312 12.652344 169.1875 C 13.832031 172.308594 14.980469 175.1875 15.675781 177.828125 C 16.429688 180.472656 16.804688 182.886719 16.238281 185.136719 C 16.238281 185.136719 14.765625 183.355469 13.289062 181.574219 C 12.554688 180.660156 11.820312 179.75 11.265625 179.0625 C 10.707031 178.371094 10.371094 177.902344 10.371094 177.902344 C 10.371094 177.902344 10.464844 178.355469 10.660156 179.035156 C 10.847656 179.707031 11.097656 180.605469 11.347656 181.503906 C 11.855469 183.289062 12.359375 185.070312 12.359375 185.070312 L 12.722656 182.957031 C 15.085938 184.425781 14.960938 186.671875 14.59375 189.304688 C 14.261719 191.929688 13.574219 194.960938 14.535156 197.730469 C 14.535156 197.730469 13.019531 196.910156 11.507812 196.09375 C 9.992188 195.25 8.480469 194.40625 8.480469 194.40625 C 8.480469 194.40625 8.523438 195.082031 8.585938 196.097656 C 8.667969 197.113281 8.703125 198.472656 8.871094 199.824219 C 9.171875 202.527344 9.472656 205.226562 9.472656 205.226562 L 10.859375 203.664062 C 15.539062 220.59375 18.324219 234.945312 20.582031 251.097656 C 20.582031 251.097656 20.511719 250.496094 20.40625 249.597656 C 20.3125 248.695312 20.140625 247.515625 20.070312 246.304688 C 19.90625 243.902344 19.738281 241.503906 19.738281 241.503906 C 21.097656 241.878906 22.917969 246.523438 23.785156 250.773438 C 25.214844 249.523438 24.527344 246.394531 24.195312 243.449219 C 23.871094 241.015625 23.605469 238.804688 24.441406 238.078125 C 25.191406 242.332031 26.113281 246.558594 27.207031 250.75 C 27.269531 251.738281 27.304688 252.710938 27.328125 253.6875 C 27.375 255.933594 27.519531 258.160156 27.785156 260.8125 C 27.929688 262.128906 28.117188 263.550781 28.402344 265.109375 C 28.730469 266.640625 29.148438 268.3125 29.6875 270.164062 C 30.6875 270.28125 31.445312 268.625 32.375 266.972656 C 33.425781 269.753906 34.566406 272.507812 35.78125 275.238281 C 34.859375 275.882812 33.425781 275.835938 30.925781 274.394531 C 35.128906 278.183594 35.273438 280.390625 35.546875 282.304688 C 35.820312 284.183594 36.320312 285.707031 41.070312 287.6875 C 40.257812 286.996094 39.660156 285.515625 39.078125 284.042969 C 39.207031 283.625 39.367188 283.339844 39.550781 283.125 C 41.535156 287.007812 43.683594 290.828125 46.007812 294.570312 C 46.0625 297.757812 46.691406 300.949219 49.332031 305.101562 C 49.332031 305.101562 50.148438 305.808594 51.378906 306.867188 C 52.609375 307.921875 54.339844 309.238281 56.023438 310.574219 C 57.308594 311.617188 58.617188 312.613281 59.746094 313.453125 C 60.621094 314.488281 61.507812 315.511719 62.414062 316.53125 C 61.976562 316.882812 61.398438 316.984375 61.398438 316.984375 C 62.984375 318.261719 64.511719 319.617188 66.019531 320.992188 C 67.570312 322.324219 69.082031 323.695312 70.566406 325.085938 C 70.808594 325.324219 71.0625 325.542969 71.308594 325.773438 C 71.664062 326.117188 72.019531 326.457031 72.378906 326.796875 C 72.488281 327.5625 72.964844 328.308594 74.058594 328.910156 C 74.5 329.136719 74.894531 329.3125 75.246094 329.441406 C 75.289062 329.476562 75.332031 329.515625 75.371094 329.550781 C 76.734375 330.785156 78.097656 332 79.410156 333.21875 C 82.363281 335.777344 85.304688 338.160156 88.191406 340.195312 C 89.242188 340.886719 90.277344 341.519531 91.304688 342.125 C 95.472656 345.003906 99.746094 347.667969 104.109375 350.109375 C 104.109375 350.140625 104.113281 350.171875 104.109375 350.207031 C 104.472656 350.382812 104.855469 350.539062 105.222656 350.714844 C 107.074219 351.730469 108.9375 352.710938 110.820312 353.648438 C 109.300781 353.96875 108.03125 354.234375 108.03125 354.234375 C 117.246094 358.75 126.707031 365.03125 136.859375 369.800781 C 146.941406 374.59375 157.601562 377.9375 167.292969 377.140625 L 164.773438 372.53125 C 165.867188 372.621094 166.949219 372.738281 168.019531 372.878906 C 169.097656 372.996094 170.171875 373.105469 171.234375 373.25 C 173.359375 373.53125 175.449219 373.894531 177.496094 374.296875 C 181.609375 374.957031 185.578125 375.832031 189.335938 376.472656 C 193.097656 377.035156 196.640625 377.675781 199.84375 377.726562 C 203.046875 377.796875 205.902344 377.570312 208.261719 376.765625 C 202.023438 373.429688 204.296875 372.453125 208.394531 372.050781 C 212.507812 371.464844 218.605469 371.480469 220.320312 370.308594 C 218.757812 370.132812 217.105469 370.023438 215.40625 369.96875 C 213.707031 369.933594 211.957031 369.996094 210.203125 370.125 C 206.699219 370.402344 203.167969 370.640625 200 371.054688 C 194.511719 371.601562 190.113281 372.050781 189.128906 371.558594 L 189.511719 372.09375 C 189.511719 372.09375 188.074219 372.246094 185.917969 372.328125 C 183.757812 372.425781 180.859375 372.578125 177.945312 372.660156 C 175.027344 372.644531 172.109375 372.628906 169.917969 372.617188 C 168.816406 372.613281 167.898438 372.589844 167.261719 372.542969 C 166.621094 372.507812 166.253906 372.488281 166.253906 372.488281 L 166.988281 369.671875 C 185.9375 371.46875 205.144531 369.894531 223.644531 364.960938 C 223.648438 364.976562 223.652344 364.996094 223.65625 365.015625 C 223.65625 364.996094 223.65625 364.976562 223.65625 364.953125 C 225.433594 364.480469 227.199219 363.972656 228.960938 363.433594 C 229.011719 364.324219 229.023438 365.277344 229.042969 366.230469 C 229.113281 371.140625 229.289062 376.3125 236.257812 373.496094 C 232.09375 373.082031 230.964844 370.179688 231.4375 367.347656 C 231.917969 364.480469 233.980469 361.8125 236.621094 361.382812 C 236.5 361.308594 236.367188 361.179688 236.230469 361.03125 C 237.222656 360.675781 238.210938 360.316406 239.199219 359.941406 C 238.125 362.109375 238.859375 363.433594 240.496094 363.894531 C 241.859375 364.285156 243.84375 364.09375 245.726562 363.273438 C 247.929688 363.875 247.214844 364.488281 245.613281 365.140625 C 243.890625 365.828125 241.207031 366.5625 240.273438 367.503906 C 249.636719 368.675781 245.890625 365.070312 248.234375 362.445312 C 249.90625 362.726562 252.011719 362.597656 254.300781 362.242188 C 256.667969 361.832031 259.238281 361.261719 261.667969 360.769531 C 263.664062 360.300781 265.5625 359.941406 267.226562 359.847656 C 266.585938 360.542969 266.332031 361.800781 266.59375 363.964844 C 266.59375 363.964844 268.796875 363.359375 271.003906 362.753906 C 272.105469 362.445312 273.207031 362.136719 274.035156 361.90625 C 274.863281 361.675781 275.410156 361.507812 275.410156 361.507812 C 276.601562 365.226562 277.179688 367.082031 271.53125 368.503906 C 273.355469 369.550781 277.566406 365.777344 279.972656 363.953125 L 277.835938 364.34375 C 278.609375 362.816406 280.519531 361.082031 282.054688 359.507812 C 278.132812 360.75 273.914062 359.664062 270.878906 359.203125 C 270.207031 359.113281 269.601562 359.074219 269.058594 359.109375 C 270.640625 357.699219 271.222656 356.484375 271.410156 355.347656 C 271.613281 354 271.226562 352.632812 270.980469 350.703125 C 272.476562 351.796875 274.589844 351.882812 276.652344 351.820312 C 278.71875 351.765625 280.816406 351.683594 282.402344 352.695312 C 284.136719 350.054688 285.941406 348.214844 287.886719 346.816406 C 289.832031 345.429688 291.929688 344.507812 293.921875 343.421875 C 295.933594 342.367188 297.980469 341.320312 299.796875 339.757812 C 300.335938 339.265625 300.851562 338.707031 301.351562 338.117188 C 301.339844 338.105469 301.367188 338.070312 301.441406 338.007812 C 302.539062 336.691406 303.527344 335.128906 304.304688 333.15625 C 305.140625 333.277344 305.621094 333.5 305.851562 333.78125 C 306.1875 333.421875 306.410156 333.183594 306.410156 333.183594 L 305.40625 333.121094 C 306.027344 330.722656 307.339844 328.433594 309.074219 326.300781 C 309.679688 325.554688 310.324219 324.8125 310.992188 324.078125 C 310.203125 324.519531 309.402344 324.925781 308.574219 325.273438 C 304.511719 326.898438 300.4375 327.839844 296.410156 328.285156 C 293.96875 328.597656 291.667969 328.84375 289.515625 329.121094 C 291.425781 327.394531 293.300781 325.609375 295.144531 323.777344 C 296.253906 324.554688 297.324219 325.304688 297.324219 325.304688 C 299.0625 323.316406 300.546875 321.257812 301.886719 319.140625 C 303.167969 317.082031 304.238281 314.863281 305.328125 312.65625 C 308.871094 308.410156 312.160156 304.019531 315.195312 299.511719 L 315.902344 300.011719 C 315.828125 299.484375 316.863281 298.121094 318.546875 295.980469 C 319.394531 294.921875 320.4375 293.699219 321.628906 292.339844 C 322.773438 290.941406 324.050781 289.378906 325.433594 287.691406 C 325.472656 287.640625 325.519531 287.582031 325.558594 287.53125 C 337.398438 274.78125 347.191406 260.109375 354.410156 244.023438 C 354.460938 243.988281 354.511719 243.953125 354.566406 243.917969 C 355.394531 243.339844 356.203125 242.726562 356.730469 242.855469 C 357.246094 242.984375 357.5 243.867188 356.929688 246.21875 C 357.003906 247.578125 357.78125 244.09375 357.863281 240.074219 C 357.941406 238.65625 357.921875 237.183594 357.804688 235.84375 C 358.273438 234.621094 358.726562 233.394531 359.164062 232.160156 C 359.960938 233.851562 361.589844 234.796875 364.675781 234.570312 C 364.859375 230.050781 364.65625 226.335938 363.4375 224.921875 L 364.53125 225.746094 C 364.53125 225.746094 363.886719 223.605469 362.746094 220.734375 C 363.453125 218.152344 364.09375 215.542969 364.667969 212.90625 C 366.011719 215.289062 367.601562 216.722656 369.921875 215.503906 C 369.921875 215.503906 368.933594 213.414062 367.941406 211.324219 C 367.460938 210.292969 366.917969 209.269531 366.507812 208.503906 C 366.101562 207.742188 365.828125 207.238281 365.828125 207.238281 C 370.523438 210.082031 369.246094 199.21875 372.769531 201.246094 C 372.769531 201.246094 372.714844 200.890625 372.582031 200.269531 C 372.449219 199.652344 372.265625 198.765625 372.039062 197.703125 C 371.558594 195.585938 371.066406 192.761719 370.296875 189.984375 C 369.59375 187.335938 368.929688 184.71875 368.339844 182.699219 C 368.375 181.351562 368.394531 180 368.394531 178.644531 L 371.699219 177.746094 C 371.699219 177.746094 371.332031 179.179688 370.964844 180.613281 C 370.777344 181.324219 370.589844 182.03125 370.449219 182.566406 C 370.292969 183.097656 370.1875 183.449219 370.1875 183.449219 C 372.964844 184.742188 374.207031 184.75 374.585938 183.84375 C 374.988281 182.953125 374.453125 181.167969 373.664062 179.011719 Z M 47.796875 111.566406 C 48.3125 110.042969 48.820312 108.570312 49.183594 107.085938 C 49.269531 106.753906 49.335938 106.429688 49.414062 106.097656 C 50.707031 105.234375 51.890625 105.625 52.875 108.632812 C 52.875 108.632812 50.992188 110.363281 49.109375 112.09375 C 48.121094 113.09375 47.144531 114.082031 46.453125 114.78125 C 46.96875 113.707031 47.429688 112.636719 47.796875 111.566406 Z M 50.402344 101.667969 C 50.648438 100.621094 50.894531 99.570312 51.152344 98.570312 C 51.355469 97.792969 51.574219 97.039062 51.8125 96.304688 C 52.195312 98.804688 51.570312 100.441406 50.402344 101.667969 Z M 59.210938 103.875 C 59.933594 103.796875 60.773438 103.929688 61.761719 104.339844 C 60.839844 105.390625 59.9375 106.445312 59.050781 107.511719 C 59.058594 106.859375 59.070312 106.191406 59.113281 105.527344 C 59.144531 104.972656 59.175781 104.417969 59.210938 103.875 Z M 36.917969 140.097656 C 37.175781 138.175781 37.144531 136.019531 37.03125 133.789062 C 36.960938 130.964844 36.707031 128.011719 36.597656 125.351562 C 36.59375 125.019531 36.605469 124.710938 36.605469 124.390625 C 36.992188 123.515625 37.417969 122.757812 37.867188 122.214844 C 37.441406 122.34375 37.042969 122.53125 36.652344 122.742188 C 36.730469 121.210938 36.90625 119.859375 37.257812 118.855469 C 37.546875 119.730469 38.804688 117.953125 40.34375 115.984375 C 41.863281 116.519531 43.421875 114.332031 44.992188 111.808594 C 45.644531 111.917969 46 112.929688 45.839844 115.398438 C 45.628906 115.613281 45.503906 115.738281 45.503906 115.738281 C 45.613281 115.738281 45.710938 115.726562 45.816406 115.71875 C 45.808594 115.859375 45.800781 115.988281 45.785156 116.136719 C 45.863281 115.996094 45.917969 115.851562 45.996094 115.710938 C 48.632812 115.558594 50.332031 114.621094 51.640625 113.351562 C 53.042969 112.019531 53.917969 110.25 54.734375 108.570312 C 55.460938 107.078125 56.191406 105.6875 57.171875 104.808594 C 57.136719 104.917969 57.101562 105.015625 57.0625 105.125 C 56.621094 106.421875 56.230469 107.84375 55.804688 109.238281 C 55.425781 110.507812 55.050781 111.765625 54.691406 112.96875 C 54.027344 113.84375 53.363281 114.71875 52.71875 115.605469 C 52.53125 115.667969 52.367188 115.707031 52.238281 115.710938 C 52.230469 115.898438 52.257812 116.054688 52.292969 116.199219 C 46.628906 124.03125 41.757812 132.257812 37.683594 140.769531 C 37.402344 140.570312 37.15625 140.339844 36.917969 140.097656 Z M 365.125 142.777344 C 366.996094 145.90625 368.078125 149.398438 365.957031 150.441406 C 365.386719 147.214844 364.71875 144.019531 363.957031 140.863281 C 364.351562 141.476562 364.746094 142.117188 365.125 142.777344 Z M 268.070312 29.695312 C 267.96875 29.65625 267.867188 29.613281 267.765625 29.570312 C 267.8125 29.5625 267.851562 29.558594 267.898438 29.546875 C 267.957031 29.597656 268.011719 29.644531 268.070312 29.695312 Z M 264.089844 26.386719 C 263.894531 26.242188 263.699219 26.101562 263.507812 25.953125 C 263.507812 25.953125 263.746094 26.144531 264.128906 26.445312 C 264.253906 26.628906 264.382812 26.820312 264.507812 27.015625 C 264.914062 27.648438 265.320312 28.296875 265.78125 28.792969 C 263.898438 28.066406 262.003906 27.371094 260.089844 26.714844 C 261.90625 24.089844 263.054688 24.925781 264.089844 26.386719 Z M 188.699219 10.054688 C 188.210938 10.140625 187.929688 10.191406 187.929688 10.191406 C 187.722656 9.933594 187.667969 9.648438 187.679688 9.375 C 188.039062 9.613281 188.390625 9.851562 188.699219 10.054688 Z M 185.167969 7.734375 C 185.167969 7.734375 185.601562 8.015625 186.199219 8.40625 C 185.839844 8.4375 185.476562 8.476562 185.117188 8.5 C 185.140625 8.257812 185.15625 8.003906 185.167969 7.734375 Z M 99.242188 29.617188 C 98.882812 29.914062 98.539062 30.207031 98.191406 30.496094 C 98.109375 30.414062 98.046875 30.335938 97.957031 30.25 C 98.394531 29.996094 98.820312 29.792969 99.242188 29.617188 Z M 89.042969 37.433594 C 90.078125 37.113281 91.101562 36.835938 92.089844 36.574219 C 91.171875 37.765625 90.585938 38.828125 90.523438 39.6875 L 90.332031 38.335938 C 90.332031 38.335938 89.207031 40.414062 87.941406 43.390625 C 86.65625 46.347656 85.445312 50.394531 84.902344 54.035156 C 85.746094 51.664062 87.4375 49.460938 89.335938 47.425781 C 91.3125 45.46875 93.488281 43.671875 95.238281 41.953125 C 98.023438 39.414062 99.835938 37.003906 98.40625 34.285156 C 99.492188 33.492188 99.765625 32.496094 98.777344 31.167969 C 100.433594 30.65625 101.742188 29.953125 102.882812 28.984375 C 104.703125 29.136719 106.179688 30.015625 107.15625 31.152344 C 106.519531 31.679688 105.84375 32.273438 105.171875 32.917969 C 102.191406 35.59375 99.398438 39.125 100.066406 40.574219 C 101.425781 40.308594 102.683594 37.996094 104.3125 36.40625 C 105.902344 34.777344 107.679688 33.675781 109.648438 35.621094 C 113.957031 33.195312 112.273438 32.933594 110.289062 32.546875 C 110.433594 32.449219 110.5625 32.363281 110.722656 32.257812 C 112.140625 31.355469 114.03125 30.152344 115.917969 28.953125 C 117.8125 27.71875 119.765625 26.609375 121.242188 25.78125 C 122.71875 24.945312 123.707031 24.386719 123.707031 24.386719 C 126.289062 26.039062 124.476562 32.6875 122.472656 32.898438 C 120.847656 33.367188 119.113281 34.328125 117.292969 35.398438 C 115.472656 36.480469 113.546875 37.59375 111.625 38.667969 C 107.777344 40.839844 103.734375 42.273438 99.527344 41.136719 C 97.777344 43.90625 99.652344 44.734375 100.625 45.722656 C 101.628906 46.738281 101.6875 47.761719 96.796875 51.144531 C 89.75 52.246094 83.128906 55.414062 77.097656 59.347656 C 77.320312 57.085938 78.632812 54.089844 79.765625 51.167969 C 81.496094 46.933594 82.929688 42.90625 79.28125 41.761719 C 79.28125 41.761719 78.503906 43.941406 77.730469 46.121094 C 77.578125 46.539062 77.433594 46.957031 77.300781 47.371094 C 75.476562 42.214844 82.457031 39.257812 89.042969 37.433594 Z M 72.03125 45.691406 C 72.8125 44.914062 73.480469 44.28125 73.964844 43.863281 C 74.441406 43.433594 74.714844 43.1875 74.714844 43.1875 L 77.25 47.523438 C 77.0625 48.105469 76.890625 48.660156 76.75 49.128906 C 76.5 49.953125 76.335938 50.503906 76.335938 50.503906 C 75.089844 45.421875 68.894531 52.953125 67.394531 50.28125 C 69.097656 48.59375 70.742188 46.964844 72.03125 45.691406 Z M 58.546875 59.921875 C 58.546875 59.921875 59.457031 58.800781 60.925781 57.214844 C 62.277344 55.738281 64.042969 53.773438 65.886719 51.808594 C 65.675781 52.132812 65.457031 52.46875 65.207031 52.847656 C 64.050781 54.6875 62.402344 57.035156 60.984375 59.542969 C 59.542969 62.03125 58.082031 64.480469 57.0625 66.363281 C 56.074219 68.265625 55.414062 69.53125 55.414062 69.53125 L 52.191406 67.683594 C 52.730469 67.023438 53.253906 66.382812 53.753906 65.777344 C 53.800781 65.75 53.847656 65.722656 53.894531 65.695312 C 54.527344 65.324219 55.164062 64.957031 55.636719 64.675781 C 56.125 64.414062 56.449219 64.234375 56.449219 64.234375 C 56.292969 63.8125 56.144531 63.445312 55.996094 63.105469 C 57.488281 61.378906 58.617188 60.226562 59.199219 60.027344 Z M 27.554688 146.894531 C 30.449219 138.082031 29.699219 150.066406 33.109375 146.773438 C 33.914062 146.363281 34.539062 145.816406 35.046875 145.167969 C 35.089844 145.570312 35.113281 145.980469 35.105469 146.410156 C 33.894531 149.21875 32.773438 152.0625 31.726562 154.921875 C 30.648438 155.398438 29.695312 155.011719 28.960938 153.980469 C 28.449219 153.265625 28.046875 152.25 27.773438 151.03125 C 27.519531 149.816406 27.46875 148.40625 27.554688 146.894531 Z M 138.441406 364.324219 C 139.1875 364.535156 139.933594 364.75 140.679688 364.953125 C 140.679688 365.039062 140.671875 365.109375 140.671875 365.203125 C 139.824219 364.980469 139.085938 364.679688 138.441406 364.324219 Z M 155.3125 368.144531 C 158.804688 368.734375 162.316406 369.203125 165.832031 369.5625 C 163.378906 371.222656 159.339844 370.078125 155.3125 368.144531 Z M 245.46875 362.925781 C 245.007812 363.007812 244.554688 363.0625 244.128906 363.066406 C 243.152344 363.042969 242.292969 362.851562 241.585938 362.53125 C 240.316406 361.957031 239.578125 360.964844 239.488281 359.84375 C 241.421875 359.101562 243.34375 358.324219 245.253906 357.507812 C 244.9375 357.988281 244.734375 358.707031 244.710938 359.777344 C 244.996094 360.914062 245.742188 361.648438 246.8125 362.089844 C 246.328125 362.289062 245.878906 362.5625 245.46875 362.925781 Z M 249.367188 357.007812 C 248.628906 356.847656 247.882812 356.675781 247.210938 356.652344 C 249.050781 355.835938 250.882812 354.984375 252.703125 354.09375 C 253.347656 357.664062 251.449219 357.464844 249.367188 357.007812 Z M 249.367188 357.007812 " fill-opacity="1" fill-rule="nonzero"/><path fill="#000000" d="M 223.65625 365.027344 C 223.65625 365.722656 223.65625 366.195312 223.65625 366.195312 C 223.800781 365.757812 223.773438 365.375 223.65625 365.027344 Z M 223.65625 365.027344 " fill-opacity="1" fill-rule="nonzero"/><g fill="#ffffff" fill-opacity="1"><g transform="translate(66.744785, 311.123608)"><g><path d="M 180.015625 0 L 61.34375 -182.328125 L 61.34375 -36 C 61.34375 -31.050781 62.035156 -27.082031 63.421875 -24.09375 C 64.816406 -21.113281 66.671875 -18.820312 68.984375 -17.21875 C 71.304688 -15.625 74.0625 -14.566406 77.25 -14.046875 C 80.445312 -13.535156 83.796875 -13.28125 87.296875 -13.28125 L 91.46875 -13.28125 L 91.46875 0 L 12.046875 0 L 12.046875 -13.28125 L 16.0625 -13.28125 C 19.675781 -13.28125 23.050781 -13.535156 26.1875 -14.046875 C 29.332031 -14.566406 32.085938 -15.625 34.453125 -17.21875 C 36.828125 -18.820312 38.679688 -21.113281 40.015625 -24.09375 C 41.359375 -27.082031 42.03125 -31.050781 42.03125 -36 L 42.03125 -191.140625 C 42.03125 -195.773438 41.332031 -199.507812 39.9375 -202.34375 C 38.550781 -205.175781 36.671875 -207.363281 34.296875 -208.90625 C 31.929688 -210.445312 29.175781 -211.445312 26.03125 -211.90625 C 22.894531 -212.375 19.570312 -212.609375 16.0625 -212.609375 L 12.046875 -212.609375 L 12.046875 -225.90625 L 70 -225.90625 L 183.265625 -50.984375 L 183.265625 -191.140625 C 183.265625 -195.773438 182.566406 -199.507812 181.171875 -202.34375 C 179.785156 -205.175781 177.90625 -207.363281 175.53125 -208.90625 C 173.164062 -210.445312 170.410156 -211.445312 167.265625 -211.90625 C 164.117188 -212.375 160.796875 -212.609375 157.296875 -212.609375 L 153.125 -212.609375 L 153.125 -225.90625 L 232.546875 -225.90625 L 232.546875 -212.609375 L 228.53125 -212.609375 C 224.925781 -212.609375 221.550781 -212.351562 218.40625 -211.84375 C 215.269531 -211.332031 212.515625 -210.273438 210.140625 -208.671875 C 207.773438 -207.078125 205.921875 -204.785156 204.578125 -201.796875 C 203.242188 -198.804688 202.578125 -194.84375 202.578125 -189.90625 L 202.578125 0 Z M 180.015625 0 "/></g></g></g></svg>